<svg data-v-c6c06d82="" width="18" height="11" viewBox="0 0 18 11" fill="none" xmlns="http://www.w3.org/2000/svg"><path data-v-c6c06d82="" d="M2.99854 10.2896H15.002C16.373 10.2896 17.0903 9.57861 17.0903 8.22021V2.06934C17.0903 0.710938 16.373 0 15.002 0H2.99854C1.62109 0 0.910156 0.710938 0.910156 2.06934V8.22021C0.910156 9.57861 1.62109 10.2896 2.99854 10.2896ZM3.08105 9.02002C2.49707 9.02002 2.17334 8.71533 2.17334 8.10596V2.18359C2.17334 1.56787 2.49707 1.26318 3.08105 1.26318H14.9194C15.5034 1.26318 15.8271 1.56787 15.8271 2.18359V8.10596C15.8271 8.71533 15.5034 9.02002 14.9194 9.02002H3.08105ZM3.69043 3.71338H4.27441C4.4585 3.71338 4.57275 3.59912 4.57275 3.41504V2.83105C4.57275 2.64697 4.4585 2.53271 4.27441 2.53271H3.69043C3.50635 2.53271 3.39209 2.64697 3.39209 2.83105V3.41504C3.39209 3.59912 3.50635 3.71338 3.69043 3.71338ZM5.69629 3.71338H6.28027C6.46436 3.71338 6.57861 3.59912 6.57861 3.41504V2.83105C6.57861 2.64697 6.46436 2.53271 6.28027 2.53271H5.69629C5.51221 2.53271 5.39795 2.64697 5.39795 2.83105V3.41504C5.39795 3.59912 5.51221 3.71338 5.69629 3.71338ZM7.6958 3.71338H8.27979C8.46387 3.71338 8.57812 3.59912 8.57812 3.41504V2.83105C8.57812 2.64697 8.46387 2.53271 8.27979 2.53271H7.6958C7.51172 2.53271 7.39746 2.64697 7.39746 2.83105V3.41504C7.39746 3.59912 7.51172 3.71338 7.6958 3.71338ZM9.70166 3.71338H10.2856C10.4697 3.71338 10.584 3.59912 10.584 3.41504V2.83105C10.584 2.64697 10.4697 2.53271 10.2856 2.53271H9.70166C9.51758 2.53271 9.40332 2.64697 9.40332 2.83105V3.41504C9.40332 3.59912 9.51758 3.71338 9.70166 3.71338ZM11.7202 3.71338H12.2852C12.4692 3.71338 12.5835 3.59912 12.5835 3.41504V2.83105C12.5835 2.64697 12.4692 2.53271 12.2852 2.53271H11.7202C11.5234 2.53271 11.4092 2.64697 11.4092 2.83105V3.41504C11.4092 3.59912 11.5234 3.71338 11.7202 3.71338ZM13.707 3.71338H14.291C14.4751 3.71338 14.5894 3.59912 14.5894 3.41504V2.83105C14.5894 2.64697 14.4751 2.53271 14.291 2.53271H13.707C13.5229 2.53271 13.4087 2.64697 13.4087 2.83105V3.41504C13.4087 3.59912 13.5229 3.71338 13.707 3.71338ZM13.707 5.73193H14.291C14.4751 5.73193 14.5894 5.61768 14.5894 5.43359V4.84961C14.5894 4.66553 14.4751 4.55127 14.291 4.55127H13.707C13.5229 4.55127 13.4087 4.66553 13.4087 4.84961V5.43359C13.4087 5.61768 13.5229 5.73193 13.707 5.73193ZM11.7202 5.73193H12.2852C12.4692 5.73193 12.5835 5.61768 12.5835 5.43359V4.84961C12.5835 4.66553 12.4692 4.55127 12.2852 4.55127H11.7202C11.5234 4.55127 11.4092 4.66553 11.4092 4.84961V5.43359C11.4092 5.61768 11.5234 5.73193 11.7202 5.73193ZM9.70166 5.73193H10.2856C10.4697 5.73193 10.584 5.61768 10.584 5.43359V4.84961C10.584 4.66553 10.4697 4.55127 10.2856 4.55127H9.70166C9.51758 4.55127 9.40332 4.66553 9.40332 4.84961V5.43359C9.40332 5.61768 9.51758 5.73193 9.70166 5.73193ZM7.6958 5.73193H8.27979C8.46387 5.73193 8.57812 5.61768 8.57812 5.43359V4.84961C8.57812 4.66553 8.46387 4.55127 8.27979 4.55127H7.6958C7.51172 4.55127 7.39746 4.66553 7.39746 4.84961V5.43359C7.39746 5.61768 7.51172 5.73193 7.6958 5.73193ZM5.69629 5.73193H6.28027C6.46436 5.73193 6.57861 5.61768 6.57861 5.43359V4.84961C6.57861 4.66553 6.46436 4.55127 6.28027 4.55127H5.69629C5.51221 4.55127 5.39795 4.66553 5.39795 4.84961V5.43359C5.39795 5.61768 5.51221 5.73193 5.69629 5.73193ZM3.69043 5.73193H4.27441C4.4585 5.73193 4.57275 5.61768 4.57275 5.43359V4.84961C4.57275 4.66553 4.4585 4.55127 4.27441 4.55127H3.69043C3.50635 4.55127 3.39209 4.66553 3.39209 4.84961V5.43359C3.39209 5.61768 3.50635 5.73193 3.69043 5.73193ZM3.69043 7.75049H4.27441C4.4585 7.75049 4.57275 7.63623 4.57275 7.45215V6.86816C4.57275 6.68408 4.4585 6.56982 4.27441 6.56982H3.69043C3.50635 6.56982 3.39209 6.68408 3.39209 6.86816V7.45215C3.39209 7.63623 3.50635 7.75049 3.69043 7.75049ZM5.74707 7.75049H12.2344C12.4565 7.75049 12.5835 7.62354 12.5835 7.40137V6.91895C12.5835 6.69678 12.4565 6.56982 12.2344 6.56982H5.74707C5.5249 6.56982 5.39795 6.69678 5.39795 6.91895V7.40137C5.39795 7.62354 5.5249 7.75049 5.74707 7.75049ZM13.707 7.75049H14.291C14.4751 7.75049 14.5894 7.63623 14.5894 7.45215V6.86816C14.5894 6.68408 14.4751 6.56982 14.291 6.56982H13.707C13.5229 6.56982 13.4087 6.68408 13.4087 6.86816V7.45215C13.4087 7.63623 13.5229 7.75049 13.707 7.75049Z" fill="white"></path></svg>